<svg width="64" height="65" viewBox="0 0 64 65" fill="none" xmlns="http://www.w3.org/2000/svg">
<rect y="0.5" width="64" height="64" rx="12" fill="#0039FF"/>
<path d="M41.5612 24.812C39.9372 25.1404 38.3545 24.0901 38.0261 22.4661C37.6954 20.8312 36.6959 19.3517 35.1443 18.4559C32.2746 16.799 28.605 17.7823 26.9482 20.652C25.9924 22.3075 25.9127 24.2265 26.574 25.8827C27.1915 27.4293 27.9352 29.3946 28.2604 31.4215C28.5888 33.4691 28.5422 35.891 27.2424 38.1424L24.6174 42.689C23.789 44.1239 21.9542 44.6155 20.5193 43.7871C19.0844 42.9587 18.5928 41.1239 19.4212 39.689L22.0462 35.1424C22.4032 34.5241 22.5429 33.661 22.3361 32.3718C22.126 31.062 21.613 29.6385 21.0018 28.1076C19.6881 24.8177 19.8382 20.9668 21.752 17.652C25.0657 11.9125 32.4048 9.94601 38.1443 13.2597C41.2486 15.052 43.2497 18.0265 43.907 21.2769C44.2354 22.9008 43.1852 24.4836 41.5612 24.812Z" fill="white"/>
<path d="M18.0212 32.6226C19.1176 33.8648 18.9994 35.7606 17.7572 36.857C16.5066 37.9608 15.7251 39.5662 15.7251 41.3578C15.7251 44.6715 18.4114 47.3578 21.7251 47.3578C23.6366 47.3578 25.3385 46.4673 26.4421 45.0665C27.4727 43.7584 28.8028 42.1317 30.3957 40.8367C32.0047 39.5284 34.1254 38.3578 36.7251 38.3578H41.9751C43.632 38.3578 44.9751 39.7009 44.9751 41.3578C44.9751 43.0147 43.632 44.3578 41.9751 44.3578H36.7251C36.0111 44.3578 35.1939 44.6684 34.1808 45.4921C33.1515 46.329 32.1752 47.485 31.1551 48.7797C28.9627 51.5624 25.5527 53.3578 21.7251 53.3578C15.0977 53.3578 9.7251 47.9852 9.7251 41.3578C9.7251 37.7733 11.3005 34.553 13.7868 32.3586C15.029 31.2622 16.9248 31.3804 18.0212 32.6226Z" fill="white"/>
<path d="M40.3569 46.9753C38.7863 46.4477 37.0854 47.2932 36.5578 48.8638C36.0302 50.4344 36.8757 52.1354 38.4464 52.663C41.5899 53.7189 45.1665 53.4731 48.2708 51.6809C54.0103 48.3672 55.9768 41.0281 52.6631 35.2886C50.7493 31.9738 47.4894 29.9184 43.9834 29.411C42.352 29.175 40.8627 28.9075 39.6233 28.4345C38.4034 27.969 37.7258 27.4165 37.3688 26.7982L34.7438 22.2516C33.9154 20.8167 32.0806 20.3251 30.6458 21.1535C29.2109 21.9819 28.7192 23.8167 29.5477 25.2516L32.1727 29.7982C33.4725 32.0496 35.5467 33.3008 37.4841 34.0402C39.4021 34.7721 41.4759 35.1107 43.1241 35.3492C44.889 35.6046 46.5111 36.6331 47.4669 38.2886C49.1238 41.1583 48.1405 44.8279 45.2708 46.4847C43.7192 47.3805 41.9381 47.5064 40.3569 46.9753Z" fill="white"/>
</svg>
