<?xml version="1.0" encoding="UTF-8"?>
<svg width="64" height="65" viewBox="0 0 64 65" fill="none" xmlns="http://www.w3.org/2000/svg">
<rect y="0.5" width="64" height="64" rx="12" fill="#0039FF"/>
<path d="M41.5611 24.8119C39.9371 25.1403 38.3544 24.0901 38.026 22.4661C37.6954 20.8311 36.6958 19.3517 35.1443 18.4558C32.2745 16.799 28.605 17.7822 26.9481 20.652C25.9923 22.3074 25.9126 24.2265 26.5739 25.8827C27.1915 27.4293 27.9352 29.3945 28.2603 31.4215C28.5887 33.4691 28.5422 35.891 27.2423 38.1424L24.6173 42.689C23.7889 44.1239 21.9541 44.6155 20.5193 43.7871C19.0844 42.9587 18.5928 41.1239 19.4212 39.689L22.0462 35.1424C22.4032 34.524 22.5428 33.661 22.336 32.3718C22.1259 31.0619 21.613 29.6385 21.0017 28.1076C19.688 24.8176 19.8382 20.9668 21.752 17.652C25.0657 11.9125 32.4047 9.94598 38.1443 13.2597C41.2485 15.0519 43.2497 18.0264 43.907 21.2768C44.2354 22.9008 43.1851 24.4835 41.5611 24.8119Z" fill="white"/>
<path d="M18.0211 32.6226C19.1175 33.8648 18.9993 35.7606 17.7571 36.857C16.5065 37.9608 15.725 39.5662 15.725 41.3578C15.725 44.6715 18.4113 47.3578 21.725 47.3578C23.6366 47.3578 25.3384 46.4673 26.442 45.0665C27.4727 43.7584 28.8028 42.1317 30.3956 40.8366C32.0047 39.5284 34.1253 38.3578 36.725 38.3578H41.975C43.6319 38.3578 44.975 39.7009 44.975 41.3578C44.975 43.0146 43.6319 44.3578 41.975 44.3578H36.725C36.011 44.3578 35.1938 44.6684 34.1807 45.4921C33.1514 46.3289 32.1751 47.4849 31.155 48.7797C28.9626 51.5623 25.5526 53.3578 21.725 53.3578C15.0976 53.3578 9.72504 47.9852 9.72504 41.3578C9.72504 37.7733 11.3004 34.553 13.7867 32.3586C15.0289 31.2622 16.9248 31.3804 18.0211 32.6226Z" fill="white"/>
<path d="M40.3568 46.9752C38.7862 46.4477 37.0853 47.2932 36.5577 48.8638C36.0301 50.4344 36.8757 52.1353 38.4463 52.6629C41.5899 53.7189 45.1664 53.4731 48.2707 51.6808C54.0102 48.3671 55.9767 41.0281 52.663 35.2885C50.7492 31.9737 47.4893 29.9183 43.9833 29.411C42.3519 29.1749 40.8627 28.9074 39.6233 28.4345C38.4034 27.9689 37.7258 27.4165 37.3688 26.7982L34.7438 22.2515C33.9153 20.8166 32.0806 20.325 30.6457 21.1535C29.2108 21.9819 28.7192 23.8166 29.5476 25.2515L32.1726 29.7982C33.4725 32.0496 35.5466 33.3008 37.4841 34.0402C39.4021 34.7721 41.4758 35.1107 43.124 35.3492C44.889 35.6045 46.5111 36.6331 47.4668 38.2885C49.1237 41.1583 48.1404 44.8278 45.2707 46.4847C43.7191 47.3805 41.9381 47.5064 40.3568 46.9752Z" fill="white"/>
</svg> 
